<svg xmlns="http://www.w3.org/2000/svg" xmlns:svg="http://www.w3.org/2000/svg" id="svg7333" width="1165.418" height="598.033" version="1.1" viewBox="0 0 308.35 158.23"><defs id="defs7327"><marker id="Arrow1Lend-7" orient="auto" refX="0" refY="0" style="overflow:visible"><path id="path5504-9" d="M 0,0 5,-5 -12.5,0 5,5 Z" transform="matrix(-0.8,0,0,-0.8,-10,0)" style="fill:#000;fill-opacity:1;fill-rule:evenodd;stroke:#000;stroke-width:1.00000003pt;stroke-opacity:1"/></marker></defs><metadata id="metadata7330"/><g id="layer1" transform="translate(167.78222,222.0791)"><flowRoot id="flowRoot5457-3-5" transform="matrix(0.26458333,0,0,0.26458333,222.45169,-366.06047)" xml:space="preserve" style="font-style:normal;font-variant:normal;font-weight:400;font-stretch:normal;font-size:32px;line-height:1.25;font-family:sans-serif;-inkscape-font-specification:'sans-serif, Normal';font-variant-ligatures:normal;font-variant-caps:normal;font-variant-numeric:normal;font-feature-settings:normal;text-align:start;letter-spacing:0;word-spacing:0;writing-mode:lr-tb;text-anchor:start;fill:#000;fill-opacity:1;stroke:none;stroke-width:1px;stroke-linecap:butt;stroke-linejoin:miter;stroke-opacity:1"><flowRegion id="flowRegion5459-2-9"><rect id="rect5461-1-1" width="541.105" height="221.288" x="-683.246" y="1107.246"/></flowRegion><flowPara id="flowPara5463-7-7">Stolon Standby Cluster</flowPara></flowRoot><rect id="rect4802-3-2-7" width="100.842" height="114.95" x="39.382" y="-193.108" ry="18.144" style="fill:#f2f2f2;stroke:#000;stroke-width:.68912399"/><path style="fill:none;fill-rule:evenodd;stroke:#000;stroke-width:.63499999;stroke-linecap:butt;stroke-linejoin:miter;stroke-miterlimit:4;stroke-dasharray:none;stroke-opacity:1;marker-end:url(#Arrow1Lend-7)" id="path5497-4" d="m 63.09277,-156.18952 c -12.195659,-22.12923 -24.391189,-44.25823 -46.416618,-55.67876 -22.0254282,-11.42054 -53.881038,-12.13281 -80.549324,-6.28951 -26.668285,5.84331 -48.148028,18.24202 -69.628528,30.64118"/><rect style="fill:#ffe680;stroke:#000;stroke-width:.62136298" id="rect4894-5-0-6-1" width="51.485" height="18.474" x="55.191" y="-155.238" ry="2.916"/><rect style="fill:#ffe680;stroke:#000;stroke-width:.62136298" id="rect4894-5-0-1-4-1" width="51.485" height="18.474" x="62.456" y="-150.863" ry="2.916"/><g id="g4786-7-8-9" transform="matrix(0.20712099,0,0,0.20712099,110.14064,-280.94732)"><rect style="fill:#00d2e6;stroke:#000;stroke-width:3" id="rect4780-5-5-1" width="193.57" height="79.286" x="-236.07" y="452.72" ry="12.515"/><text style="font-size:40px;line-height:0%;font-family:sans-serif;letter-spacing:0;word-spacing:0;fill:#000;stroke-width:1px" id="text4784-8-6-3" x="-192.5" y="503.434" font-size="40" letter-spacing="0" word-spacing="0" xml:space="preserve"><tspan style="font-family:sans-serif" id="tspan4782-7-2-8" x="-192.5" y="503.434">proxy</tspan></text></g><g id="g4786-7-0-5-7" transform="matrix(0.20712099,0,0,0.20712099,115.58013,-277.321)"><rect style="fill:#00d2e6;stroke:#000;stroke-width:3" id="rect4780-5-4-26-4" width="193.57" height="79.286" x="-236.07" y="452.72" ry="12.515"/><text style="font-size:40px;line-height:0%;font-family:sans-serif;letter-spacing:0;word-spacing:0;fill:#000;stroke-width:1px" id="text4784-8-2-9-9" x="-192.5" y="503.434" font-size="40" letter-spacing="0" word-spacing="0" xml:space="preserve"><tspan style="font-family:sans-serif" id="tspan4782-7-9-1-3" x="-192.5" y="503.434">proxy</tspan></text></g><g id="g4786-7-0-2-3-1" transform="matrix(0.20712099,0,0,0.20712099,121.32177,-274.29903)"><rect style="fill:#00d2e6;stroke:#000;stroke-width:3" id="rect4780-5-4-2-3-3" width="193.57" height="79.286" x="-236.07" y="452.72" ry="12.515"/><text style="font-size:40px;line-height:0%;font-family:sans-serif;letter-spacing:0;word-spacing:0;fill:#000;stroke-width:1px" id="text4784-8-2-2-1-8" x="-192.5" y="503.434" font-size="40" letter-spacing="0" word-spacing="0" xml:space="preserve"><tspan style="font-family:sans-serif" id="tspan4782-7-9-0-5-7" x="-192.5" y="503.434">proxy</tspan></text></g><rect style="fill:#ffe680;stroke:#000;stroke-width:.62136298" id="rect4894-5-2-9" width="51.485" height="18.474" x="70.053" y="-145.162" ry="2.916"/><text style="font-size:8.28483963px;line-height:0%;font-family:sans-serif;letter-spacing:0;word-spacing:0;fill:#000;stroke-width:.28221965px" id="text4908-6-6-3" x="81.066" y="-133.693" font-size="29.356" letter-spacing="0" word-spacing="0" xml:space="preserve"><tspan style="font-family:sans-serif;stroke-width:.28221965px" id="tspan4906-0-9-8" x="81.066" y="-133.693">keeper</tspan></text><g id="g4838-3-4-8" transform="matrix(0.20712099,0,0,0.20712099,55.30424,-267.05712)"><rect style="fill:#d0b8ff;stroke:#000;stroke-width:3" id="rect4832-9-4-4" width="193.57" height="79.286" x="41.071" y="727.01" ry="12.515"/><rect style="fill:#d0b8ff;stroke:#000;stroke-width:3" id="rect4832-9-7-6-0" width="193.57" height="79.286" x="70.251" y="745.977" ry="12.515"/></g><g id="g4838-3-8-0-0" transform="matrix(0.20712099,0,0,0.20712099,68.60071,-258.59572)"><rect style="fill:#d0b8ff;stroke:#000;stroke-width:3" id="rect4832-9-9-7-8" width="193.57" height="79.286" x="41.071" y="727.01" ry="12.515"/><text style="font-size:40px;line-height:0%;font-family:sans-serif;letter-spacing:0;word-spacing:0;fill:#000;stroke-width:1px" id="text4836-2-1-4-6" x="59.643" y="780.576" font-size="40" letter-spacing="0" word-spacing="0" xml:space="preserve"><tspan style="font-family:sans-serif" id="tspan4834-8-5-3-8" x="59.643" y="780.576">sentinel</tspan></text></g><rect style="fill:#f96;stroke:#000;stroke-width:.62136298" id="rect4896-4-2-9-2" width="86.597" height="44.227" x="-167.472" y="-185.714" ry="6.982"/><text style="font-size:11.33115387px;line-height:0%;font-family:sans-serif;text-align:center;letter-spacing:0;word-spacing:0;text-anchor:middle;fill:#000;stroke-width:.28221962px" id="text4904-4-5-7-3" x="-125.22" y="-166.082" font-size="22.017" letter-spacing="0" text-align="center" transform="scale(0.9953952,1.0046261)" word-spacing="0" xml:space="preserve"><tspan style="line-height:110.00000238%;text-align:center;stroke-width:.28221962px" id="tspan4898-9-2-6-8" x="-125.22" y="-166.082" text-align="center">PostgreSQL</tspan><tspan style="line-height:110.00000238%;text-align:center;stroke-width:.28221962px" id="tspan4900-9-4-8-5" x="-125.22" y="-153.617" text-align="center">instance</tspan></text></g></svg>